<svg width="18" height="18" viewBox="0 0 18 18" fill="none" xmlns="http://www.w3.org/2000/svg">
<path d="M16.7744 0.190271C16.774 0.190272 16.7736 0.190207 16.7731 0.190241L9.86219 0.220798C9.34446 0.223096 8.92654 0.644618 8.9288 1.16245C8.93107 1.68021 9.35262 2.0981 9.87039 2.09583L14.5103 2.07526L0.499417 16.1425C0.134025 16.5093 0.135215 17.1029 0.502075 17.4683C0.868935 17.8337 1.46251 17.8325 1.8279 17.4656L15.8388 3.39846L15.8369 8.0384C15.8367 8.55617 16.2563 8.97605 16.774 8.97623C17.2919 8.97646 17.7117 8.55675 17.7119 8.03908L17.7148 1.12807C17.7148 1.12767 17.7147 1.12727 17.7148 1.12684C17.7142 0.608078 17.2915 0.188671 16.7744 0.190271Z" fill="white"/>
</svg>
